<?xml version="1.0" standalone="no"?>
<svg xmlns="http://www.w3.org/2000/svg" viewBox="0 0 156.612 36" width="156.612" height="36"><g fill="#ffb39f" color="#ffb39f" transform="translate(142.112, 6) scale(0.5)"><svg width="29.0" height="48.0" x="0.0" y="0.0" viewBox="0 0 29 48"><path fill="currentColor" fill-rule="evenodd" d="M24 28.8l4.8 4.8L14.4 48 0 33.6l4.8-4.8 9.6 9.6 9.6-9.6zm-9.6-14.4L24 24l-9.6 9.6L4.8 24l9.6-9.6zm0-14.4l14.4 14.4-4.8 4.8-9.6-9.6-9.6 9.6L0 14.4 14.4 0z"></path></svg></g><path fill="#9a1212" fill-rule="nonzero" d="M0 1.73L0 1.20L12.48 1.20L12.72 6.19L12.29 6.19Q11.40 3.60 10.24 2.66Q9.07 1.73 6.77 1.73L6.77 1.73L6.10 1.73L6.10 9.53L7.18 9.53Q8.33 9.53 9.10 8.69Q9.86 7.85 10.15 6.38L10.15 6.38L10.51 6.38L10.51 13.49L10.10 13.49Q9.72 11.69 9.04 10.92Q8.35 10.15 7.18 10.15L7.18 10.15L6.10 10.15L6.10 17.47L9.07 17.47L9.07 18L0 18L0 17.47L1.42 17.47L1.42 1.73L0 1.73ZM18.38 12.36L18.38 12.36L19.08 12.36L19.08 10.51Q19.08 8.23 18.83 7.45Q18.58 6.67 17.86 6.67L17.86 6.67Q17.42 6.67 17.08 6.90Q16.73 7.13 16.73 7.52Q16.73 7.92 16.87 8.33L16.87 8.33L17.47 8.33Q17.66 8.83 17.66 9.54Q17.66 10.25 17.06 10.76Q16.46 11.28 15.55 11.28L15.55 11.28Q13.49 11.28 13.49 9.29L13.49 9.29Q13.49 6.34 18.50 6.34L18.50 6.34Q21.36 6.34 22.45 7.31Q23.54 8.28 23.54 10.87L23.54 10.87L23.54 15.74Q23.54 16.99 24.24 16.99L24.24 16.99Q25.06 16.99 25.20 14.52L25.20 14.52L25.56 14.54Q25.46 16.66 24.77 17.45Q24.07 18.24 22.49 18.24L22.49 18.24Q19.61 18.24 19.18 16.46L19.18 16.46Q18.86 17.38 18.24 17.81Q17.62 18.24 16.42 18.24L16.42 18.24Q12.86 18.24 12.86 15.34L12.86 15.34Q12.86 13.63 14.22 13.00Q15.58 12.36 18.38 12.36ZM17.42 15.31Q17.42 16.56 17.56 16.92Q17.69 17.28 18.06 17.28Q18.43 17.28 18.76 16.67Q19.08 16.06 19.08 14.98L19.08 14.98L19.08 12.74L18.91 12.74Q17.42 12.74 17.42 14.93L17.42 14.93L17.42 15.31ZM26.64 18.24L26.35 18.24L26.35 13.94L26.64 13.94Q27.26 16.03 28.32 16.87Q29.38 17.71 30.96 17.71L30.96 17.71Q33.41 17.71 33.41 16.15L33.41 16.15Q33.41 15.48 32.81 15.14L32.81 15.14Q31.87 14.62 30.41 14.33L30.41 14.33Q28.78 13.90 27.67 13.18L27.67 13.18Q26.35 12.31 26.35 10.44Q26.35 8.57 27.50 7.45Q28.66 6.34 30.58 6.34L30.58 6.34Q31.75 6.34 33 6.89L33 6.89Q33.46 7.08 33.70 7.08Q33.94 7.08 34.10 6.91Q34.27 6.74 34.51 6.29L34.51 6.29L34.78 6.29L34.78 9.96L34.49 9.96Q33.26 6.84 30.70 6.84L30.70 6.84Q29.57 6.84 29.02 7.24Q28.46 7.63 28.46 8.23L28.46 8.23Q28.46 8.59 28.63 8.80Q28.80 9 28.90 9.10Q28.99 9.19 29.21 9.30Q29.42 9.41 29.57 9.47Q29.71 9.53 30.01 9.62Q30.31 9.72 30.46 9.74L30.46 9.74Q32.09 10.15 32.81 10.45Q33.53 10.75 34.18 11.18L34.18 11.18Q35.50 12.10 35.50 14.12Q35.50 16.15 34.30 17.20Q33.10 18.24 31.01 18.24L31.01 18.24Q29.52 18.24 28.13 17.54L28.13 17.54Q27.84 17.35 27.67 17.35L27.67 17.35Q27.14 17.35 26.64 18.24L26.64 18.24ZM36.22 0.43L36.22 0L42 0L42 8.78Q42.38 7.68 43.18 7.01Q43.97 6.34 45.58 6.34L45.58 6.34Q49.30 6.34 49.30 10.34L49.30 10.34L49.30 17.57L50.64 17.57L50.64 18L43.85 18L43.85 17.57L44.83 17.57L44.83 9.77Q44.83 8.33 44.64 7.91Q44.45 7.49 43.94 7.49L43.94 7.49Q43.18 7.49 42.59 8.50Q42 9.50 42 10.94L42 10.94L42 17.57L43.03 17.57L43.03 18L36.22 18L36.22 17.57L37.54 17.57L37.54 0.43L36.22 0.43ZM54.53 4.92Q53.26 4.92 52.72 4.27Q52.18 3.62 52.18 2.66Q52.18 1.70 52.76 1.08Q53.35 0.46 54.55 0.46Q55.75 0.46 56.38 1.02Q57 1.58 57 2.63Q57 3.67 56.40 4.30Q55.80 4.92 54.53 4.92ZM50.90 7.01L50.90 6.58L56.78 6.58L56.78 17.57L58.13 17.57L58.13 18L51 18L51 17.57L52.32 17.57L52.32 7.01L50.90 7.01ZM66.36 13.27L66.36 13.27L66.36 11.23Q66.36 8.90 66.11 7.84Q65.86 6.77 64.94 6.77L64.94 6.77Q64.42 6.77 64.09 7.07Q63.77 7.37 63.62 8.06L63.62 8.06Q63.41 9.14 63.41 11.35L63.41 11.35L63.41 13.22Q63.41 15.84 63.56 16.37Q63.72 16.90 63.89 17.23L63.89 17.23Q64.15 17.81 64.92 17.81L64.92 17.81Q65.86 17.81 66.14 16.73L66.14 16.73Q66.36 15.96 66.36 13.27ZM64.87 18.24Q61.87 18.24 60.34 16.70Q58.80 15.17 58.80 12.30Q58.80 9.43 60.44 7.88Q62.09 6.34 65.06 6.34Q68.04 6.34 69.50 7.76Q70.97 9.19 70.97 12.12L70.97 12.12Q70.97 18.24 64.87 18.24L64.87 18.24ZM71.69 7.01L71.69 6.58L77.47 6.58L77.47 8.78Q77.86 7.68 78.65 7.01Q79.44 6.34 81.05 6.34L81.05 6.34Q84.77 6.34 84.77 10.34L84.77 10.34L84.77 17.57L86.11 17.57L86.11 18L79.32 18L79.32 17.57L80.30 17.57L80.30 9.77Q80.30 8.33 80.11 7.91Q79.92 7.49 79.42 7.49L79.42 7.49Q78.65 7.49 78.06 8.50Q77.47 9.50 77.47 10.94L77.47 10.94L77.47 17.57L78.50 17.57L78.50 18L71.69 18L71.69 17.57L73.01 17.57L73.01 7.01L71.69 7.01ZM94.85 17.54L96.55 17.54L94.80 12.36L90.05 12.36L88.20 17.54L90 17.54L90 18L86.33 18L86.33 17.54L87.46 17.54L93.58 1.06L95.54 1.06L101.59 17.54L102.70 17.54L102.70 18L94.85 18L94.85 17.54ZM94.61 11.83L92.52 5.54L90.26 11.83L94.61 11.83ZM111.10 7.25L111.10 7.25Q110.21 7.25 109.54 8.40Q108.86 9.55 108.86 11.14L108.86 11.14L108.86 17.57L110.57 17.57L110.57 18L103.08 18L103.08 17.57L104.40 17.57L104.40 7.01L103.08 7.01L103.08 6.58L108.86 6.58L108.86 8.88Q109.18 7.66 110.06 7.00Q110.95 6.34 112.08 6.34Q113.21 6.34 113.92 6.97Q114.62 7.61 114.62 8.77Q114.62 9.94 114.10 10.56Q113.57 11.18 112.48 11.18Q111.38 11.18 110.87 10.46Q110.35 9.74 110.74 8.47L110.74 8.47L111.60 8.47Q112.20 7.25 111.10 7.25ZM116.16 14.57L116.16 14.57L116.16 7.01L114.84 7.01L114.84 6.58L116.16 6.58L116.16 3.48L120.62 2.38L120.62 6.58L123.74 6.58L123.74 7.01L120.62 7.01L120.62 15.10Q120.62 16.22 120.85 16.75Q121.08 17.28 121.80 17.28Q122.52 17.28 123.06 16.56Q123.60 15.84 123.77 14.59L123.77 14.59L124.18 14.64Q123.98 16.30 123.12 17.27Q122.26 18.24 120.26 18.24Q118.27 18.24 117.22 17.45Q116.16 16.66 116.16 14.57ZM125.26 18.24L124.97 18.24L124.97 13.94L125.26 13.94Q125.88 16.03 126.94 16.87Q127.99 17.71 129.58 17.71L129.58 17.71Q132.02 17.71 132.02 16.15L132.02 16.15Q132.02 15.48 131.42 15.14L131.42 15.14Q130.49 14.62 129.02 14.33L129.02 14.33Q127.39 13.90 126.29 13.18L126.29 13.18Q124.97 12.31 124.97 10.44Q124.97 8.57 126.12 7.45Q127.27 6.34 129.19 6.34L129.19 6.34Q130.37 6.34 131.62 6.89L131.62 6.89Q132.07 7.08 132.31 7.08Q132.55 7.08 132.72 6.91Q132.89 6.74 133.13 6.29L133.13 6.29L133.39 6.29L133.39 9.96L133.10 9.96Q131.88 6.84 129.31 6.84L129.31 6.84Q128.18 6.84 127.63 7.24Q127.08 7.63 127.08 8.23L127.08 8.23Q127.08 8.59 127.25 8.80Q127.42 9 127.51 9.10Q127.61 9.19 127.82 9.30Q128.04 9.41 128.18 9.47Q128.33 9.53 128.63 9.62Q128.93 9.72 129.07 9.74L129.07 9.74Q130.70 10.15 131.42 10.45Q132.14 10.75 132.79 11.18L132.79 11.18Q134.11 12.10 134.11 14.12Q134.11 16.15 132.91 17.20Q131.71 18.24 129.62 18.24L129.62 18.24Q128.14 18.24 126.74 17.54L126.74 17.54Q126.46 17.35 126.29 17.35L126.29 17.35Q125.76 17.35 125.26 18.24L125.26 18.24Z" transform="translate(0, 8.88)"></path></svg>